<svg width="1500" height="1501" viewBox="0 0 1500 1501" fill="none" xmlns="http://www.w3.org/2000/svg">
<path d="M191.712 415.368H298.212C357.031 415.368 404.713 463.05 404.713 521.868V978.297C404.713 1037.12 357.031 1084.8 298.213 1084.8H191.712V415.368Z" stroke="#ECECEC" stroke-width="40.5714"/>
<rect x="495.728" y="415.368" width="213" height="669.429" rx="106.5" stroke="#ECECEC" stroke-width="40.5714"/>
<path d="M1158.55 956.94C1158.55 900.533 1112.82 854.805 1056.42 854.805C1000.01 854.805 954.283 900.533 954.283 956.94V985.249C954.283 1041.66 1000.01 1087.38 1056.42 1087.38C1085.62 1087.38 1111.96 1075.13 1130.57 1055.48M969.344 971.156H1176.43" stroke="#ECECEC" stroke-width="37.9263"/>
<path d="M1227.14 1105.08V955.058M1328.57 875.021C1272.55 875.021 1227.14 910.855 1227.14 955.058M1227.14 955.058V848.343" stroke="#ECECEC" stroke-width="39.5571"/>
<circle cx="831.58" cy="1054.37" r="50.7143" fill="#6167A0"/>
</svg>
